{
  "accessors": [
    {
      "bufferView": 2,
      "componentType": 5126,
      "count": 5569,
      "max": [
        14.179282188415527,
        1.0455440282821655,
        13.881941795349121
      ],
      "min": [
        -13.629810333251953,
        -3.1573004722595215,
        -13.988655090332031
      ],
      "type": "VEC3"
    },
    {
      "bufferView": 2,
      "byteOffset": 66828,
      "componentType": 5126,
      "count": 5569,
      "max": [
        1.0,
        1.0,
        1.0
      ],
      "min": [
        -1.0,
        -1.0,
        -1.0
      ],
      "type": "VEC3"
    },
    {
      "bufferView": 1,
      "componentType": 5126,
      "count": 5569,
      "max": [
        1.0024383068084717,
        1.0
      ],
      "min": [
        -0.0020217460114508867,
        0.0
      ],
      "type": "VEC2"
    },
    {
      "bufferView": 0,
      "componentType": 5125,
      "count": 8475,
      "type": "SCALAR"
    },
    {
      "bufferView": 2,
      "byteOffset": 133656,
      "componentType": 5126,
      "count": 36,
      "max": [
        12.160048484802246,
        0.9074637293815613,
        12.134758949279785
      ],
      "min": [
        -12.017132759094238,
        -1.6894526481628418,
        -12.160048484802246
      ],
      "type": "VEC3"
    },
    {
      "bufferView": 2,
      "byteOffset": 134088,
      "componentType": 5126,
      "count": 36,
      "max": [
        0.000609645911026746,
        1.0,
        7.099947106325999e-05
      ],
      "min": [
        -4.944869579048827e-05,
        0.999998927116394,
        -0.0013411706313490868
      ],
      "type": "VEC3"
    },
    {
      "bufferView": 1,
      "byteOffset": 44552,
      "componentType": 5126,
      "count": 36,
      "max": [
        0.49000000953674316,
        0.49000000953674316
      ],
      "min": [
        0.01000000536441803,
        0.01000000536441803
      ],
      "type": "VEC2"
    },
    {
      "bufferView": 0,
      "byteOffset": 33900,
      "componentType": 5125,
      "count": 90,
      "type": "SCALAR"
    }
  ],
  "asset": {
    "extras": {
      "author": "gauravnikam (https://sketchfab.com/gauravnikam)",
      "license": "CC-BY-4.0 (http://creativecommons.org/licenses/by/4.0/)",
      "source": "https://sketchfab.com/3d-models/low-poly-water-fountain-7cf9722641f3485f9edae8109799128a",
      "title": "Low poly Water Fountain"
    },
    "generator": "Sketchfab-12.65.0",
    "version": "2.0"
  },
  "bufferViews": [
    {
      "buffer": 0,
      "byteLength": 34260,
      "name": "floatBufferViews",
      "target": 34963
    },
    {
      "buffer": 0,
      "byteLength": 44840,
      "byteOffset": 34260,
      "byteStride": 8,
      "name": "floatBufferViews",
      "target": 34962
    },
    {
      "buffer": 0,
      "byteLength": 134520,
      "byteOffset": 79100,
      "byteStride": 12,
      "name": "floatBufferViews",
      "target": 34962
    }
  ],
  "buffers": [
    {
      "byteLength": 213620,
      "uri": "scene.bin"
    }
  ],
  "extensionsRequired": [
    "KHR_materials_pbrSpecularGlossiness"
  ],
  "extensionsUsed": [
    "KHR_materials_pbrSpecularGlossiness"
  ],
  "images": [
    {
      "uri": "textures/Material.002_diffuse.jpeg"
    }
  ],
  "materials": [
    {
      "doubleSided": true,
      "extensions": {
        "KHR_materials_pbrSpecularGlossiness": {
          "diffuseFactor": [
            0.22232376186523486,
            0.22232376186523486,
            0.22232376186523486,
            1.0
          ],
          "glossinessFactor": 0.0,
          "specularFactor": [
            0.0,
            0.0,
            0.0
          ]
        }
      },
      "name": "Material.001"
    },
    {
      "doubleSided": true,
      "extensions": {
        "KHR_materials_pbrSpecularGlossiness": {
          "diffuseFactor": [
            1.0,
            1.0,
            1.0,
            1.0
          ],
          "diffuseTexture": {
            "index": 0
          },
          "glossinessFactor": 0.09838046710162296,
          "specularFactor": [
            0.0,
            0.0,
            0.0
          ]
        }
      },
      "name": "Material.002"
    }
  ],
  "meshes": [
    {
      "name": "Object_0",
      "primitives": [
        {
          "attributes": {
            "NORMAL": 1,
            "POSITION": 0,
            "TEXCOORD_0": 2
          },
          "indices": 3,
          "material": 0,
          "mode": 4
        }
      ]
    },
    {
      "name": "Object_1",
      "primitives": [
        {
          "attributes": {
            "NORMAL": 5,
            "POSITION": 4,
            "TEXCOORD_0": 6
          },
          "indices": 7,
          "material": 1,
          "mode": 4
        }
      ]
    }
  ],
  "nodes": [
    {
      "children": [
        1
      ],
      "matrix": [
        1.0,
        0.0,
        0.0,
        0.0,
        0.0,
        2.220446049250313e-16,
        -1.0,
        0.0,
        0.0,
        1.0,
        2.220446049250313e-16,
        0.0,
        0.0,
        0.0,
        0.0,
        1.0
      ],
      "name": "Sketchfab_model"
    },
    {
      "children": [
        2
      ],
      "name": "root"
    },
    {
      "children": [
        3
      ],
      "matrix": [
        1.0,
        0.0,
        0.0,
        0.0,
        0.0,
        2.220446049250313e-16,
        1.0,
        0.0,
        0.0,
        -1.0,
        2.220446049250313e-16,
        0.0,
        0.0,
        0.0,
        0.0,
        1.0
      ],
      "name": "GLTF_SceneRootNode"
    },
    {
      "children": [
        4,
        5
      ],
      "matrix": [
        0.3022160828113556,
        0.0,
        0.0,
        0.0,
        0.0,
        1.0085183382034302,
        0.0,
        0.0,
        0.0,
        0.0,
        0.3022160828113556,
        0.0,
        0.0,
        3.2776219844818115,
        0.0,
        1.0
      ],
      "name": "Cylinder.002_2"
    },
    {
      "mesh": 0,
      "name": "Object_4"
    },
    {
      "mesh": 1,
      "name": "Object_5"
    }
  ],
  "samplers": [
    {
      "magFilter": 9729,
      "minFilter": 9987,
      "wrapS": 10497,
      "wrapT": 10497
    }
  ],
  "scene": 0,
  "scenes": [
    {
      "name": "Sketchfab_Scene",
      "nodes": [
        0
      ]
    }
  ],
  "textures": [
    {
      "sampler": 0,
      "source": 0
    }
  ]
}
